PathFileType	4	(X/Y/Z)	Patient4_TMGait_0pt3_03_right_21.trc.trc
DataRate	CameraRate	NumFrames	NumMarkers	Units	OrigDataRate	OrigDataStartFrame	OrigNumFrames
53.639846743295	53.639846743295	4	33	mm	53.639846743295	53	       141
Frame#	Time	Sacral			L.Shoulder			Chest			R.Shoulder			Neck			R.ASIS			L.ASIS			R.Thigh.Superior			R.Thigh.Lateral			R.Thigh.Inferior			R.Patella			L.Thigh.Superior			L.Thigh.Lateral			L.Thigh.Inferior			L.Patella			L.Shank.Superior			L.Shank.Lateral			L.Shank.Inferior			R.Shank.Superior			R.Shank.Lateral			R.Shank.Inferior			R.Heel			R.Midfoot.Superior			R.Midfoot.Lateral			R.Toe			L.Heel			L.Midfoot.Lateral			L.Midfoot.Superior			L.Toe			L.Elbow			L.Wrist			R.Elbow			R.Wrist			
		X1	Y1	Z1	X2	Y2	Z2	X3	Y3	Z3	X4	Y4	Z4	X5	Y5	Z5	X6	Y6	Z6	X7	Y7	Z7	X8	Y8	Z8	X9	Y9	Z9	X10	Y10	Z10	X11	Y11	Z11	X12	Y12	Z12	X13	Y13	Z13	X14	Y14	Z14	X15	Y15	Z15	X16	Y16	Z16	X17	Y17	Z17	X18	Y18	Z18	X19	Y19	Z19	X20	Y20	Z20	X21	Y21	Z21	X22	Y22	Z22	X23	Y23	Z23	X24	Y24	Z24	X25	Y25	Z25	X26	Y26	Z26	X27	Y27	Z27	X28	Y28	Z28	X29	Y29	Z29	X30	Y30	Z30	X31	Y31	Z31	X32	Y32	Z32	X33	Y33	Z33	

53	40.199428571429	710.639134291464	981.037127204793	580.167610227222	878.214084332522	1411.619372298074	390.705885796543	987.141248462121	1346.305128324522	548.493132111178	909.517478475874	1415.392043386115	726.680306625760	858.846559043722	1473.827642503620	548.619618238852	949.236544198260	919.180769135988	684.488548088548	919.375750017695	947.406829872688	413.065255737000	1001.926741791823	723.688209164038	635.447416585820	933.340566246607	603.981362163066	690.504709002479	1007.692119829105	561.116519781603	601.515535792906	1011.838504310587	462.640954305383	602.704129960519	1011.959170434792	769.355404635656	440.331442708043	978.750445059648	643.898414540833	355.981716118694	1082.726068663231	584.797261266665	422.106177565825	1098.121797008542	493.516062382553	406.977678446290	1027.490252319827	428.428349015764	392.636629947293	882.148692386836	397.201835327843	344.570920092221	864.732521566728	263.549885066951	385.713636097406	959.305712551607	377.099965314087	609.362731866565	870.183099259691	290.557119969486	675.616252130568	879.732379294323	192.009542942969	608.541728096609	709.801788679460	47.237219526401	589.066073357651	883.062529027398	96.019753627061	618.240333496775	794.815205629160	39.211648333494	660.771361499084	1002.468739897111	40.002722296787	645.781466163841	673.498298981964	210.665909521259	424.149140205172	723.100526681637	164.689716845652	338.895941363349	829.455117401236	161.130725747737	356.035724059260	894.543317459678	43.514000658222	317.112822079634	872.655933653045	1050.927660490683	291.426912930645	960.675016119691	805.083032027517	289.352663190175	929.745320691181	1060.767128710604	841.581268460530	1074.748477171730	844.467901855011	845.579685387073	
54	40.218071428571	709.205616254354	979.652536271863	582.498865639902	873.102004591293	1410.686771113006	391.379951250521	984.459638915854	1345.585629633798	547.585379260491	909.185405932296	1414.205990010135	727.050111877579	856.560561938784	1472.889955170652	549.613802087742	949.040416192651	918.094061320879	683.500291174942	915.538869419089	946.900423145352	412.697244857153	1000.805178157299	722.356185587238	633.649187554555	932.911027314519	602.624687408925	689.452989351939	1006.021026399324	559.766237605348	599.460374745243	1009.895356084608	461.123931030708	600.506338720796	1010.687271816087	771.304868439223	439.124936392753	978.662200364110	645.317775567131	354.887488189255	1084.208021254970	587.952328708383	419.944413816072	1101.331869886661	497.353867811820	404.795005543668	1032.691147670292	430.675343265770	390.857792423291	888.265520446869	394.459227307606	343.979326758186	876.280660726953	260.327873480709	384.917341023307	956.612477897462	375.690550588694	607.774574210016	867.276473923726	289.882953780002	674.835372510628	875.339540162659	191.266454331290	607.910230518584	704.208565990758	47.323422061399	589.255037262105	877.435393104689	95.924263465273	618.091524589268	789.248377659299	39.220613808903	660.909193870292	996.863798588574	39.886847836244	645.791838477408	687.741348936199	198.498804611990	424.863656741850	738.659985829439	156.653251541773	338.411707760156	844.975305410480	158.254286782801	354.802109808910	915.340597446420	45.008213627636	313.267574983044	857.927280728259	1050.201450566601	292.668745665210	933.396992537608	800.287756902983	291.144518145140	941.742706077508	1060.655871360041	842.284835360218	1100.803333716670	854.378317647213	843.245748935120	
55	40.236714285714	707.788067855350	979.122953194372	584.482036841916	868.288237506748	1410.387388586285	391.785603854689	982.003050969534	1345.460104994126	546.388618271232	909.116389401197	1413.760450414853	727.037278548779	854.549332037640	1472.588663516297	550.271507144905	948.669298961743	917.553288204288	682.290241029751	911.786796997138	946.967180573422	412.115845440527	998.944781080306	721.326144855643	631.860098264964	931.394065126661	601.813511819550	688.537424427019	1003.156188541463	558.715337332839	597.625716638443	1006.601586353236	460.070796690006	598.628612423329	1008.779792989296	773.206200030006	437.692526299887	977.275151561656	646.748525201599	353.590130857920	1084.104844870534	590.752046656413	417.558668162537	1102.800779716823	501.149095379955	402.501517132239	1036.746654215830	432.913261938738	388.830557113037	894.112326953194	390.480837787277	342.680373676868	888.754753066341	256.026249835303	383.379412140045	952.839744314074	374.754838700932	606.460584222047	863.541315545351	289.409347960701	674.244520581444	870.481879167168	190.775151085470	607.446397574977	698.568576329655	47.367899678144	589.475458514632	871.775197254406	95.850328645706	618.013725873827	783.652353945096	39.197678245517	661.070499089492	991.230316674791	39.810955053822	645.790585193343	704.014443121420	183.801952168895	424.400196345095	756.506672427520	146.475555095040	336.942595109047	862.427980762673	154.062494228752	352.778039317671	938.797032610530	46.177067724414	308.992300959957	842.915833660645	1050.491635087696	293.575711528123	906.646216218833	797.467495927572	292.652176295699	953.998117581987	1061.873615053607	842.587030989082	1126.784716943091	866.870009073231	840.287881192385	
56	40.255357142857	706.379264814849	979.476444261380	586.096927988888	863.825566870384	1410.758694445437	391.916521018684	979.801986559139	1345.936378391657	544.904998652328	909.333831855422	1414.067513368086	726.634634739908	852.813429092609	1472.940233290073	550.574945506380	948.118201493261	917.574858986273	680.866435326340	908.171798091162	947.648143565617	411.302584668308	996.370928049755	720.623577248362	630.128707867795	928.799173568204	601.564492188911	687.782618914152	999.153863208469	557.989172174648	596.071930608780	1002.013503187633	459.498029847014	597.133337947461	1006.229355671897	775.019708397476	436.124879258869	974.640366236245	648.161996028961	352.171891426560	1082.379899186079	593.111913058380	415.129554480539	1102.491898767313	504.824339761862	400.274321527697	1039.591127240391	435.129811340284	386.715542557617	899.770744071788	385.425397060001	340.734308398202	902.066317269875	250.947184391685	381.235658210033	948.031648706429	374.312306573950	605.463374725688	858.991170592152	289.165745378319	673.859415351561	865.180824383212	190.554442208651	607.158957516024	692.889136984548	47.389311982224	589.712638061287	866.098474329631	95.803405754773	618.009355482583	778.031319268023	39.157399164889	661.244557586273	985.573943217962	39.767135598489	645.779667299722	722.314505105794	167.252363461058	422.779044669688	776.607911680505	134.694557874864	334.604100766953	881.669588575865	148.901382646602	350.154497201116	964.518831105986	47.208209286609	304.683628371684	827.886492558324	1051.862843466548	294.172005716419	880.702118443219	796.531654123076	293.928367653114	966.440779805356	1064.454239339801	842.500703482622	1152.398752918613	881.946716594895	836.739319333727	
